<?xml version="1.0" encoding="UTF-8"?>
<svg id="Layer_1" data-name="Layer 1" xmlns="http://www.w3.org/2000/svg" viewBox="0 0 550 655">
  <defs>
    <style>
      .cls-1 {
        stroke-width: 0px;
      }
    </style>
  </defs>
  <path class="cls-1" d="M485.04,215.69c-6.55-6.7-12.94-13.55-15.23-24.21-3.35-15.38-1.07-33.19,8.37-46.44,15.53-19.8,22.69-38.52,22.08-60.76-.76-25.73-8.83-42.03-29.84-57.86-21.01-15.84-46.44-20.25-77.96-13.86-22.69,4.57-39.89,17.51-52.38,33.5-20.86,26.65-26.5,71.11-.91,102.93,15.84,19.8,28.63,36.24,40.35,51.77,15.99,21.32,32.89,44.77,29.39,74-1.22,10.35-2.28,21.77-23.45,30.61-3.35,1.37-40.96,14.31-52.84,22.08-10.2,6.7-17.51,18.12-19.34,32.43-1.98,15.07,2.13,30.3,10.66,38.83,6.85,6.85,39.44,23.6,44.31,46.14,5.63,26.04-1.07,48.88-19.34,67.91-18.27,19.03-40.2,25.58-72.18,23.45-22.84-1.52-39.29-12.49-50.4-33.8-9.9-19.03-14.31-40.5-13.7-67.91.3-17.36,4.87-32.28,13.86-45.53,10.05-14.92,23.91-34.72,31.98-46.14,20.86-29.69,22.38-61.06,4.72-93.34-7.31-13.4-19.03-21.93-32.43-23.45-13.4-1.52-25.89,3.96-35.94,15.23-7.77,8.53-15.99,17.21-23.15,24.82-8.37,8.83-18.27,10.81-30.61,6.24-10.05-3.81-15.84-11.42-17.36-22.69-3.5-26.8,6.4-47.05,20.4-68.22,11.72-20.56,29.24-31.67,37.61-76.9,5.79-31.37-3.65-59.23-15.53-72.79-15.23-17.36-45.07-26.65-71.26-24.82C60.81,9.37,28.83,30.07,16.5,73.32c-4.72,16.45-7.92,46.44,3.96,72.48,5.02,10.96,14.31,37,17.05,49.03,7.31,31.67,3.35,61.67-12.03,88.93-9.9,17.66-14.47,35.94-13.25,54.36.76,12.94,2.13,35.17,17.66,53.45,11.27,13.25,27.87,27.71,52.84,33.65,25.89,6.09,41.57,11.12,55.73,29.69,16.75,21.93,22.23,39.59,26.04,73.85,1.67,14.92,2.28,29.54,4.87,44.62,3.5,20.4,12.79,39.13,26.95,54.21,15.53,16.75,42.48,26.04,69.44,26.04,12.94,0,37.61-3.2,52.99-9.9,38.22-16.6,56.04-45.53,72.02-69.89,6.85-10.35,16.29-23.91,21.93-29.84,7.61-7.77,21.01-20.4,33.5-27.71,19.49-11.72,33.8-23.6,39.29-39.29,2.74-7.61,7.16-24.97-.61-40.96-6.09-12.64-13.4-19.03-25.12-25.89-11.88-5.79-15.68-18.88-14.47-27.71.15-9.44,8.98-19.8,25.28-22.69,24.06-4.26,27.87-5.18,39.13-12.49,9.59-6.24,18.27-20.71,21.62-30.15,4.57-13.1,7.16-30.15,4.87-42.48-4.87-25.12-14.62-31.67-21.93-38.07-5.48-4.87-24.21-15.84-29.24-20.86Z"/>
</svg>