<?xml version="1.0" encoding="UTF-8"?>
<svg id="Layer_1" data-name="Layer 1" xmlns="http://www.w3.org/2000/svg" viewBox="0 0 550 655">
  <defs>
    <style>
      .cls-1 {
        stroke-width: 0px;
      }
    </style>
  </defs>
  <path class="cls-1" d="M514.15,239.88c-1.81-1.66-30.74-24.41-36.61-36.16-9.64-19.14-7.84-39.18,6.18-57.11,15.37-19.59,22.45-39.63,21.85-61.63-.75-25.46-11.75-46.11-32.55-61.78-20.79-15.67-45.96-20.04-77.15-13.71-22.45,4.52-39.48,14.31-51.83,30.14-20.64,26.37-26.22,77.9-.9,109.39,15.67,19.59,42.79,34.05,56.2,47.92,19.14,19.59,39.48,43.09,33.15,71.72-3.92,17.93-22.75,26.52-43.7,35.26-3.31,1.36-40.53,14.16-52.29,21.85-10.1,6.63-17.33,17.93-19.14,32.09-1.96,14.92,2.11,29.99,10.55,38.42,6.78,6.78,39.03,23.36,43.85,45.66,5.58,25.77-1.05,48.37-19.14,67.2s-39.78,25.31-71.42,23.2c-22.6-1.51-38.88-12.36-49.87-33.45-9.79-18.83-14.16-40.08-13.56-67.2.3-17.18,4.82-31.94,13.71-45.05,9.94-14.77,23.66-34.35,31.64-45.66,20.64-29.38,22.15-60.42,4.67-92.37-7.23-13.26-18.83-21.7-32.09-23.2-13.26-1.51-25.62,3.92-35.56,15.07-7.68,8.44-15.82,17.03-22.9,24.56-8.29,8.74-18.08,10.7-30.29,6.18-9.94-3.77-15.67-11.3-17.18-22.45-3.47-26.52,15.82-53.94,32.55-72.63,19.44-21.85,32.7-35.41,35.86-71.12,2.71-30.14-9.04-53.79-18.08-64.64-18.53-23.36-46.41-33.6-86.79-31.79C50.06,10.4,16.16,42.19,12.54,84.08c-2.26,26.82,3.16,51.68,17.03,76.39,5.88,10.4,12.36,22.15,15.07,34.05,7.23,31.34,3.31,61.02-11.9,88-9.79,17.48-14.31,35.56-13.11,53.79.75,12.81,3.31,23.51,7.53,31.94,12.96,25.92,36.16,37.07,66.75,27.57,41.74-12.96,86.34-49.42,81.22,34.66-1.21,19.44-8.74,64.94-6.03,98.85,1.21,15.52,2.86,24.86,5.88,39.63,4.07,20.04,12.66,38.72,26.67,53.64,15.37,16.57,42.04,25.77,68.71,25.77,12.81,0,25.77-2.11,37.37-6.63,38.57-15.07,60.57-43.55,66.9-87.39,2.71-18.99,8.89-31.04,31.64-36.16,7.53-1.66,32.55-4.67,36.46-5.27,15.52-2.26,36.92-7.68,44.15-28.33,8.29-23.96,2.71-45.2-15.82-60.12-1.51-1.21-7.68-6.63-9.19-7.99-11.45-9.79-15.37-19.89-13.56-36.16.9-8.74,7.38-14.01,13.56-17.18,4.82-2.56,25.46-12.81,31.64-16.27,11.6-6.33,21.25-12.96,27.27-17.48,9.49-7.08,15.97-21.7,16.88-35.11,1.51-21.7-2.11-37.52-23.51-54.4"/>
</svg>