<?xml version="1.0" encoding="UTF-8"?>
<svg id="Layer_1" data-name="Layer 1" xmlns="http://www.w3.org/2000/svg" viewBox="0 0 550 655">
  <defs>
    <style>
      .cls-1 {
        stroke-width: 0px;
      }
    </style>
  </defs>
  <path class="cls-1" d="M513.46,235.58c-1.78-1.63-27.79-20.66-36.11-35.67-10.25-18.43-12.33-34.33,4.46-49.19,9.07-8.03,26.01-18.73,29.87-56.03,2.97-28.24-10.55-56.18-30.47-70.15-28.53-20.06-68.36-24.82-100.61-5.94-20.06,11.74-41.61,41.31-43.25,81.44-1.04,26.01,10.4,47.41,20.95,61.38,10.11,13.38,25.26,30.47,32.99,39.23,7.58,8.47,24.22,23.33,26.6,56.47.89,11.59-7.43,32.69-28.09,41.31-3.27,1.34-39.98,13.97-51.57,21.55-9.96,6.54-17.09,17.68-18.87,31.65-1.93,14.71,2.08,29.57,10.4,37.9,6.69,6.69,38.49,23.03,43.25,45.03,5.5,25.41-1.04,47.7-18.87,66.28-17.83,18.58-39.23,24.97-70.44,22.89-22.29-1.49-38.34-12.19-49.19-32.99-9.66-18.58-13.97-39.53-13.38-66.28.3-16.94,4.76-31.51,13.52-44.44,9.81-14.56,23.33-33.88,31.21-45.03,20.36-28.98,21.85-59.59,4.61-91.1-7.13-13.08-18.58-21.4-31.65-22.89s-25.26,3.86-35.07,14.86c-7.58,8.32-15.6,16.79-22.59,24.22-8.17,8.62-17.83,10.55-29.87,6.09-9.81-3.72-15.46-11.15-16.94-22.14-3.42-26.16,1.78-48.89,15.46-69.55,15.9-23.78,29.43-48.3,33.74-83.37.74-5.94-1.04-26.01-4.76-35.82C166.75,22.77,138.22,5.68,98.39,7.46,55.74,9.24,22.3,40.6,18.73,81.91c-2.23,26.45,3.12,50.97,16.79,75.35,5.8,10.25,12.19,21.85,14.86,33.59,7.13,30.91-5.65,42.95-20.66,69.55-9.66,17.24-17.68,38.79-17.68,56.77-.15,26.75,8.17,43.25,21.55,57.22,15.9,16.5,53.5,30.91,65.69,32.84,21.55,3.57,40.72,10.4,54.69,28.09,14.42,18.28,24.37,46.81,23.93,80.55-.15,12.93-5.65,44.58-4.31,58.85,1.93,20.06,8.47,37.3,23.33,50.97,17.09,15.9,44.29,18.87,70.59,16.94,23.18-1.63,31.06-6.39,42.5-10.85,38.04-14.86,59.74-42.95,65.98-86.2,2.68-18.73,8.77-30.61,31.21-35.67,7.43-1.63,32.1-4.61,35.96-5.2,15.31-2.23,36.41-7.58,43.54-27.94,8.17-23.63,2.68-44.58-15.6-59.3-1.49-1.19-7.58-6.54-9.07-7.88-11.29-9.66-15.16-19.62-13.38-35.67.89-8.62,7.28-13.82,13.38-16.94,4.76-2.53,25.12-12.63,31.21-16.05,11.44-6.24,20.95-12.78,26.9-17.24,9.36-6.98,15.75-21.4,16.64-34.63,1.34-21.25-2.23-36.86-23.33-53.5"/>
</svg>