<?xml version="1.0" encoding="utf-8"?>
<!-- Generator: Adobe Illustrator 28.1.0, SVG Export Plug-In . SVG Version: 6.00 Build 0)  -->
<svg version="1.1" id="Layer_1" xmlns="http://www.w3.org/2000/svg" xmlns:xlink="http://www.w3.org/1999/xlink" x="0px" y="0px"
	 viewBox="0 0 550 655" style="enable-background:new 0 0 550 655;" xml:space="preserve">
<style type="text/css">
	.st0{clip-path:url(#SVGID_00000123442999563768633890000011530023309148412091_);fill:#231F20;}
</style>
<g>
	<defs>
		<rect id="SVGID_00000180332937429960095400000010403661691868692105_" x="-515.2" y="6.7" width="1920" height="857.8"/>
	</defs>
	<clipPath id="SVGID_00000050657775951853799960000017520707678987678397_">
		<use xlink:href="#SVGID_00000180332937429960095400000010403661691868692105_"  style="overflow:visible;"/>
	</clipPath>
</g>
<path d="M514.1,239.9c-1.8-1.7-30.7-24.4-36.6-36.2c-9.6-19.1-7.8-39.2,6.2-57.1C499.1,127,506.2,107,505.6,85
	c-0.8-25.5-11.8-46.1-32.5-61.8s-46-20-77.1-13.7C373.4,14,356.4,23.8,344,39.6c-20.6,26.4-26.2,77.9-0.9,109.4
	c15.7,19.6,28.3,35.9,39.9,51.2c15.8,21.1,32.5,44.3,29.1,73.2c-1.2,10.2-2.3,21.5-23.2,30.3c-3.3,1.4-40.5,14.2-52.3,21.8
	c-10.1,6.6-17.3,17.9-19.1,32.1c-2,14.9,2.1,30,10.5,38.4c6.8,6.8,39,23.4,43.8,45.7c5.6,25.8-1.1,48.4-19.1,67.2
	c-18.1,18.8-39.8,25.3-71.4,23.2c-22.6-1.5-38.9-12.4-49.9-33.5c-9.8-18.8-14.2-40.1-13.6-67.2c0.3-17.2,4.8-31.9,13.7-45.1
	c9.9-14.8,23.7-34.4,31.6-45.7c20.6-29.4,22.1-60.4,4.7-92.4c-7.2-13.3-18.8-21.7-32.1-23.2s-25.6,3.9-35.6,15.1
	c-7.7,8.4-15.8,17-22.9,24.6c-8.3,8.7-18.1,10.7-30.3,6.2c-9.9-3.8-15.7-11.3-17.2-22.5c-3.5-26.5,1.8-49.6,15.7-70.5
	c16.1-24.1,29.8-49,34.2-84.5c0.8-6-1.1-26.4-4.8-36.3C162.6,24.1,133.7,6.8,93.3,8.6c-43.2,1.8-77.1,33.6-80.8,75.5
	c-2.3,26.8,3.2,51.7,17,76.4c5.9,10.4,12.4,22.1,15.1,34.1c7.2,31.3,3.3,61-11.9,88c-9.8,17.5-14.3,35.6-13.1,53.8
	c0.8,12.8,3.3,23.5,7.5,31.9c13,25.9,55.8,37.8,66.8,39.6c13.9,2.3,47.2,11.2,57.4,31.8c5.7,11.5,15.1,51.2,18.8,85.1
	c1.7,14.8,2.3,29.2,4.8,44.1c3.5,20.2,12.7,38.7,26.7,53.6c15.4,16.6,42,25.8,68.7,25.8c12.8,0,25.8-2.1,37.4-6.6
	c38.6-15.1,60.6-43.5,66.9-87.4c2.7-19,8.9-31,31.6-36.2c7.5-1.7,32.5-4.7,36.5-5.3c15.5-2.3,36.9-7.7,44.1-28.3
	c8.3-24,2.7-45.2-15.8-60.1c-1.5-1.2-7.7-6.6-9.2-8c-11.5-9.8-15.4-19.9-13.6-36.2c0.9-8.7,7.4-14,13.6-17.2
	c4.8-2.6,25.5-12.8,31.6-16.3c11.6-6.3,21.2-13,27.3-17.5c9.5-7.1,16-21.7,16.9-35.1C539.2,272.6,535.5,256.8,514.1,239.9"/>
</svg>
