<?xml version="1.0" encoding="UTF-8"?>
<svg id="Layer_1" data-name="Layer 1" xmlns="http://www.w3.org/2000/svg" viewBox="0 0 550 655">
  <defs>
    <style>
      .cls-1 {
        stroke-width: 0px;
      }
    </style>
  </defs>
  <path class="cls-1" d="M513.58,238.41c-1.8-1.65-30.54-24.26-36.38-35.93-9.58-19.02-7.79-38.93,6.14-56.75,15.27-19.46,22.31-39.38,21.71-61.24-.75-25.3-11.68-45.82-32.34-61.39-20.66-15.57-45.67-19.91-76.66-13.62-22.31,4.49-39.23,14.22-51.51,29.94-20.51,26.2-26.05,77.41-.9,108.7,15.57,19.46,28.15,35.63,39.68,50.91,15.72,20.96,32.34,44.02,28.9,72.77-1.2,10.18-2.25,21.41-23.06,30.09-3.29,1.35-35.63,11.38-47.31,19.02-10.03,6.59-17.52,20.36-17.67,34.59-.3,20.81,13.77,33.09,22.01,41.62s18.72,23.21,21.71,44.47c3.29,23.21-2.7,42.22-21.26,60.34-21.41,20.81-43.87,24.41-64.38,22.46-14.22-1.35-41.92-14.07-49.56-28.75-9.73-18.72-14.07-39.83-13.48-66.78.3-17.07,4.79-31.74,13.62-44.77,9.88-14.67,23.51-34.14,31.44-45.37,20.51-29.2,31.74-60.49,13.62-91.78-11.38-19.76-27.7-21.56-40.87-23.06s-25.45,3.89-35.33,14.97c-7.64,8.38-15.72,16.92-22.76,24.41-8.23,8.68-17.97,10.63-30.09,6.14-9.88-3.74-15.57-11.23-17.07-22.31-3.44-26.35,1.8-49.26,15.57-70.07,16.02-23.96,29.65-48.66,33.99-84,.75-5.99-1.05-26.2-4.79-36.08-12.28-32.94-51.95-41.92-70.67-41.32-32.04,1.05-58.39,10.63-76.51,32.64-22.16,26.95-23.51,72.92-1.5,106.45,11.23,17.07,25.3,32.19,28,44.02,7.19,31.14-5.69,54.95-20.81,81.75-9.73,17.37-14.22,35.33-13.03,53.45.75,12.73,3.29,23.36,7.49,31.74,12.88,25.75,55.4,37.58,66.33,39.38,13.77,2.25,62.44,13.33,63.63,57.19,1.05,36.98-5.54,53-7.94,70.52-2.25,17.07.45,37.73,3.89,45.52,6.14,13.77,12.58,23.36,31.59,38.93,17.37,14.22,57.49,26.8,84,26.8,12.73,0,25.6-2.1,37.13-6.59,38.33-14.97,60.19-43.27,66.48-86.84,2.7-18.87,8.83-26.35,31.44-31.44,7.49-1.65,27.25,0,36.23-2.25,15.12-3.74,36.68-15.12,43.87-35.63,8.23-23.81,2.7-44.92-15.72-59.74-1.5-1.2-7.64-6.59-9.13-7.94-11.38-9.73-15.27-19.76-13.48-35.93.9-8.68,7.34-13.92,13.48-17.07,4.79-2.55,25.3-12.73,31.44-16.17,11.53-6.29,21.11-12.88,27.1-17.37,9.43-7.04,15.87-21.56,16.77-34.89,1.8-21.26-1.8-36.98-23.06-53.75"/>
</svg>