<?xml version="1.0" encoding="utf-8"?>
<!-- Generator: Adobe Illustrator 28.1.0, SVG Export Plug-In . SVG Version: 6.00 Build 0)  -->
<svg version="1.1" id="Layer_1" xmlns="http://www.w3.org/2000/svg" xmlns:xlink="http://www.w3.org/1999/xlink" x="0px" y="0px"
	 viewBox="0 0 366.1 442.8" style="enable-background:new 0 0 366.1 442.8;" xml:space="preserve">
<style type="text/css">
	.st0{fill:#231F20;}
</style>
<path class="st0" d="M329.7,150.4c-1.4-0.8-7.9-4.9-11.8-12.7c-6.4-12.7-5.2-26,4.1-37.9c10.2-13,14.9-26.3,14.5-40.9
	c-0.5-16.9-7.8-30.6-21.6-41s-30.5-13.3-51.2-9.1c-14.9,3-26.2,9.5-34.4,20c-13.7,17.5-17.4,51.7-0.6,72.6
	c10.4,13,18.8,23.8,26.5,34c10.5,14,21.6,29.4,19.3,48.6c-0.8,6.8-1.5,14.3-15.4,20.1c-2.2,0.9-26.9,9.4-34.7,14.5
	c-6.7,4.4-11.5,11.9-12.7,21.3c-1.3,9.9,1.4,19.9,7,25.5c4.5,4.5,25.9,15.5,29.1,30.3c3.7,17.1-0.7,32.1-12.7,44.6
	s-26.4,16.8-47.4,15.4c-15-1-25.8-8.2-33.1-22.2c-6.5-12.5-9.4-26.6-9-44.6c0.2-11.4,3.2-21.2,9.1-29.9c6.6-9.8,15.7-22.8,21-30.3
	c13.7-19.5,14.7-40.1,3.1-61.3c-4.8-8.8-12.5-14.4-21.3-15.4s-17,2.6-23.6,10c-5.1,5.6-10.5,11.3-15.2,16.3
	c-5.5,5.8-12,7.1-20.1,4.1c-6.6-2.5-10.4-7.5-11.4-14.9c-2.3-17.6,1.2-32.9,10.4-46.8c7.7-13.5,22.2-18.8,27.7-48.5
	c3.8-20.6-2.4-38.9-10.2-47.8C105.1,13,85.5,6.9,68.3,8.1C45.9,9.7,24.9,23.3,16.8,51.7c-3.1,10.8-5.2,30.5,2.6,47.6
	c3.3,7.2,9.4,24.3,11.2,32.2c4.8,20.8,2.2,40.5-7.9,58.4c-6.5,11.6-9.5,23.6-8.7,35.7c0.5,8.5,1.4,23.1,11.6,35.1
	c7.4,8.7,18.3,18.2,34.7,22.1c17,4,27.3,7.3,36.6,19.5c11,14.4,14.6,26,17.1,48.5c1.1,9.8,1.5,19.4,3.2,29.3
	c2.3,13.4,8.4,25.7,17.7,35.6c10.2,11,27.9,17.1,45.6,17.1c8.5,0,24.7-2.1,34.8-6.5c25.1-10.9,36.1-20.9,45.5-48.7
	c3.7-10.8,8-17.7,14-23.1c6.7-6,16.1-11,24.2-15.9c12.8-7.7,22.8-14.6,27.2-24.5c3.2-7.2,3.3-19.3-1.2-26.3
	c-8.2-12.8-16.1-12.5-21-17.8c-3.1-3.4-3.6-9.5-3.5-15.2c0.1-6.2,3.8-13,14.5-14.9c15.8-2.8,18.3-3.4,25.7-8.2
	c6.3-4.1,12-13.6,14.2-19.8c3-8.6,4.7-19.8,3.2-27.9c-3.2-16.5-9.6-20.8-14.4-25C340.1,155.7,333.8,152.7,329.7,150.4z"/>
</svg>
