<?xml version="1.0" encoding="utf-8"?>
<!-- Generator: Adobe Illustrator 28.0.0, SVG Export Plug-In . SVG Version: 6.00 Build 0)  -->
<svg version="1.1" id="Layer_1" xmlns="http://www.w3.org/2000/svg" xmlns:xlink="http://www.w3.org/1999/xlink" x="0px" y="0px"
	 viewBox="0 0 366.1 442.8" style="enable-background:new 0 0 366.1 442.8;" xml:space="preserve">
<style type="text/css">
	.st0{fill:#231F20;}
</style>
<path class="st0" d="M342.2,161.7c-1.2-1.1-20.4-16.2-24.3-24c-6.4-12.7-5.2-26,4.1-37.9c10.2-13,14.9-26.3,14.5-40.9
	c-0.5-16.9-7.8-30.6-21.6-41C301.2,7.6,285.3,5.6,265,6.8c-16.3,1-33.4,9.7-43,23.3c-13.7,19.4-10.1,50.4,6.7,71.3
	c10.4,13,18.8,23.8,26.5,34c10.5,14,21.6,29.4,19.3,48.6c-0.8,6.8-1.6,14.1-15.4,20.1c-2.2,0.9-26.9,9.4-34.7,14.5
	c-6.7,4.4-11.5,11.9-12.7,21.3c-1.3,9.9,2,19.4,7,25.5c12.9,15.8,37.9,10.8,37.9,31.8c0,20-13.5,15.5-27,29c-15,15-8,42-41.9,37.4
	c-14.9-2-25.8-16.2-33.1-30.2c-6.5-12.5-9.4-26.6-9-44.6c0.2-11.4,3.2-21.2,9.1-29.9c6.6-9.8,21.4-17.9,33.6-33.9
	c8-10.4,9.1-21.2,7.4-30.9c-2.3-13.2-14.4-31.6-24.8-36.7c-14.7-7.1-30.4-2.9-37,4.5c-5.1,5.6-6.7,13.3-11.4,18.3
	c-5.5,5.7-15.8,5.1-23.9,2.1c-6.6-2.5-10.5-7.5-11.4-15c-2.3-17.6,1.1-32.9,10.4-46.8c10.7-16,19.8-32.5,22.7-56.1
	c0.5-4-0.7-17.5-3.2-24.1c-8.3-22-27.5-33.4-54.3-32.2C34.2,9.4,11.7,30.6,9.3,58.3C7.8,76.1,11.5,92.7,20.6,109
	c3.9,6.9,8.2,14.7,10,22.6c4.8,20.8,2.2,40.5-7.9,58.4c-6.5,11.6-9.5,23.6-8.7,35.7c0.5,8.5,2.2,15.6,5,21.2
	c8.6,17.2,37,25.1,44.3,26.3c9.2,1.5,31.3,7.4,38.1,21.1c3.8,7.6,10.1,34,12.5,56.5c1.1,9.8,1.5,19.4,3.3,29.3
	c2.3,13.4,8.4,25.7,17.7,35.6c10.2,11,27.9,17.1,45.6,17.1c8.5,0,17.1-1.4,24.8-4.4c25.6-10,40.2-28.9,44.4-58
	c1.8-12.6,5.9-20.5,21-24c5-1.1,21.6-3.1,24.2-3.5c10.3-1.5,24.5-5.1,29.3-18.8c5.5-15.8,1.8-30-10.5-39.9c-1-0.8-5.1-4.4-6.1-5.3
	c-7.8-6.3-10.3-13.2-9-24c0.7-5.7,4.9-9.3,9-11.5c3.3-1.7,16.8-8.5,21-10.8c7.7-4.2,14.1-8.6,18.1-11.6c6.3-4.7,10.6-14.4,11.3-23.3
	C358.9,183.4,356.4,172.9,342.2,161.7"/>
</svg>
