<?xml version="1.0" encoding="UTF-8"?>
<svg id="Layer_1" data-name="Layer 1" xmlns="http://www.w3.org/2000/svg" xmlns:xlink="http://www.w3.org/1999/xlink" viewBox="0 0 1280 425.84">
  <defs>
    <style>
      .cls-1 {
        clip-path: url(#clippath);
      }

      .cls-2 {
        fill: none;
        stroke-width: 0px;
      }

      .cls-3 {
        stroke: #000;
        stroke-miterlimit: 10;
      }
    </style>
    <clipPath id="clippath">
      <rect class="cls-2" width="1280" height="425.84"/>
    </clipPath>
  </defs>
  <g class="cls-1">
    <path class="cls-3" d="m683.46,154.73c-1.23-1.1-17.87-18.04-24.3-23.97-47.15-43.52,16.85-32.52,18.6-78.84.64-16.85-7.78-30.64-21.57-40.99-13.71-10.27-30.46-13.27-51.24-9.15-14.93,2.96-22.6,13.84-34.44,20.03-50.5,26.42-25.5,62.42-14.5,68.42,14.61,7.97,32.77,27.97,40.44,38.19,10.5,14,21.74,29.42,19.28,48.6-2.72,21.21-36.28,21.32-44.72,25.21-39,18-24,50-11.13,56.25,5.71,2.77,25.72,15.57,29.12,30.26,3.55,17.11-.72,32.1-12.68,44.58-11.37,11.87-24.34-1.75-45.31-3.1-14.97-.96-27.87,10.3-35.17-3.69-6.51-12.47-9.39-26.64-9.03-44.61.22-11.42,3.2-21.22,9.1-29.94,6.6-9.77,46.03-23.24,38.1-78.76-4-28-29.23-35-38-35-35,0-31.35,28.1-36.11,33.1-5.46,5.75-12.02,7.09-20.08,4.07-6.61-2.46-10.45-7.5-11.41-14.95-2.26-17.62-13.68-39.32-4.4-53.22,10.71-16.04,35.34-26.02,37.49-49.74.61-3.96-.73-17.53-3.17-24.14C450.19,11.31,430.92-.13,404.09,1.09c-28.62,1.33-51.12,22.46-53.49,50.25-1.52,17.75,2.17,34.32,11.27,50.65,3.85,6.91,8.22,14.74,10.05,22.64,4.81,20.84,2.16,40.47-7.88,58.35-6.54,11.64-15.03,14.26-22.03,39.26-7.02,25.06,12.26,45.5,24,48,34.48,7.33,37-13,57-10,9.23,1.38,13.69,12.99,19.7,27.05,4.18,7.42,10.44,34,12.53,56.5,1.22,9.75,1.54,19.44,3.25,29.32,2.32,13.37,8.43,25.68,17.68,35.63,10.19,10.95,27.89,17.1,45.61,17.1,8.53,0,17.06-1.42,24.76-4.41,25.64-9.98,38.24-17.15,42.48-46.18,1.84-12.59,8.51-41.58,22.89-35.79,49.11,19.79,101.11-7.21,61.11-56.21-14.14-17.32-26.08-27.19-33.21-35.35-19.79-22.65,69.21-10.65,71.21-56.65.63-14.44-13.31-25.32-27.55-36.51"/>
  </g>
</svg>