<?xml version="1.0" encoding="UTF-8"?>
<svg id="Layer_1" data-name="Layer 1" xmlns="http://www.w3.org/2000/svg" viewBox="0 0 349.06 424.84">
  <defs>
    <style>
      .cls-1 {
        fill: #231f20;
        stroke-width: 0px;
      }
    </style>
  </defs>
  <path class="cls-1" d="m333.19,153.73c-1.23-1.1-20.55-16.06-24.3-23.97-6.7-12.56-5.24-26.03,4.11-37.93,10.2-12.97,14.94-26.35,14.49-40.91-.52-16.85-4.61-41.17-21.78-41.36-41-.44-26.83,41.18-50,46-44,9.15-20-47-62.47-34.75-62.86,18.13-51.36,110.93,7.64,105.93,16.58-1.41,26-4,45.29.68,17.01,4.12,20.64,29.31,19.28,48.6-1.18,6.77-1.7,14-15.41,20.13-2.18.93-27.13,9.13-34.73,14.49-6.87,4.1-11.51,11.86-12.74,21.3-1.29,9.91,1.39,19.87,7.02,25.54,4.45,4.53,25.72,15.57,29.12,30.26,3.55,17.11-.72,32.1-12.68,44.58-11.37,11.87-26.42,16.77-47.39,15.42-14.97-.96-25.79-8.22-33.09-22.21-6.51-12.47-9.39-26.64-9.03-44.61.22-11.42,3.2-21.22,9.1-29.94,6.6-9.77,20.96-30.34,20.96-30.34,13.61-19.52,14.66-40.13,3.11-61.27-4.8-8.78-12.54-14.37-21.26-15.35-8.57-.98-16.96,2.58-23.61,9.99-5.06,5.64-9.21,16.43-7.73,23.17,9,41-5.3,51.8-28,53-26.85,1.42-34-4-36-23-1.86-17.66,26.18-80.68,35.46-94.58,10.71-16.04,20.51-32.4,22.66-56.12.61-3.96-.73-17.53-3.17-24.14C99.92,10.32,80.65-1.13,53.82.09,25.2,1.42,2.7,22.55.33,50.34c-1.52,17.75,2.17,34.32,11.27,50.65,3.85,6.91,8.22,14.74,10.05,22.64,4.81,20.84,2.16,40.47-7.88,58.35-6.54,11.64-9.47,23.64-8.71,35.68.53,8.47,2.22,15.61,5,21.19,8.59,17.23,36.96,25.43,44.26,26.33,9.13,1.93,32.1,7.04,38.11,21.11,4.18,7.42,10.44,34,12.53,56.5,1.22,9.75,1.54,19.44,3.25,29.32,2.32,13.37,8.43,25.68,17.68,35.63,10.19,10.95,27.89,17.1,45.61,17.1,8.53,0,17.06-1.42,24.76-4.41,25.64-9.98,40.16-28.94,44.4-57.97,1.84-12.59,5.85-20.55,20.96-24,4.96-1.13,10.6-1.81,16.05-2.47,2.79-.33,5.55-.67,8.19-1.05,10.3-1.51,30.14-6.41,36.95-19.18,8-15,4.12-35.26-9-44-12-8-25.07-7.11-31-8-20-3-25-6-31-13-11.46-13.37-3-30,33-21,3.56.89,20,6,32,1,12.89-5.37,18.74-13.75,20.76-17.63,3.62-6.95,8.24-19.42,8.24-28.37,0-17-4-23-12.64-31.01"/>
</svg>