<?xml version="1.0" encoding="UTF-8"?>
<svg id="Layer_1" data-name="Layer 1" xmlns="http://www.w3.org/2000/svg" viewBox="0 0 526.62 425.84">
  <defs>
    <style>
      .cls-1 {
        stroke-width: 0px;
      }
    </style>
  </defs>
  <path class="cls-1" d="M378.08,116.47c0-17.94,13.29-31.48,30.91-31.48s30.91,13.53,30.91,31.48v299.69h86.72V125.04c0-71.28-48.37-121.06-117.63-121.06s-117.63,49.78-117.63,121.06v187.2c0,16.32-12.06,28.62-28.05,28.62s-28.05-12.3-28.05-28.62V125.04C235.26,53.76,186.89,3.98,117.63,3.98S0,53.76,0,125.04v291.12h86.72V116.47c0-17.94,13.29-31.48,30.91-31.48s30.91,13.53,30.91,31.48v187.2c0,68.49,48.27,118.2,114.77,118.2s114.77-49.71,114.77-118.2V116.47Z"/>
</svg>