<?xml version="1.0" encoding="UTF-8"?>
<svg id="Layer_1" data-name="Layer 1" xmlns="http://www.w3.org/2000/svg" viewBox="0 0 789.92 641.6">
  <defs>
    <style>
      .cls-1 {
        stroke-width: 0px;
      }
    </style>
  </defs>
  <path class="cls-1" d="M567.12,176.11c0-26.91,19.93-47.21,46.36-47.21s46.36,20.3,46.36,47.21v449.53h130.08V188.97c0-106.91-72.56-181.58-176.45-181.58s-176.44,74.67-176.44,181.58v280.79c0,24.47-18.09,42.93-42.07,42.93s-42.07-18.45-42.07-42.93V188.97c0-106.91-72.56-181.58-176.45-181.58S0,82.06,0,188.97v436.67h130.08V176.11c0-26.91,19.93-47.21,46.36-47.21s46.36,20.3,46.36,47.21v280.79c0,102.74,72.4,177.3,172.16,177.3s172.16-74.56,172.16-177.3V176.11Z"/>
</svg>