<?xml version="1.0" encoding="utf-8"?>
<!-- Generator: Adobe Illustrator 28.1.0, SVG Export Plug-In . SVG Version: 6.00 Build 0)  -->
<svg version="1.1" id="Layer_1" xmlns="http://www.w3.org/2000/svg" xmlns:xlink="http://www.w3.org/1999/xlink" x="0px" y="0px"
	 viewBox="0 0 1280 425.8" style="enable-background:new 0 0 1280 425.8;" xml:space="preserve">
<style type="text/css">
	.st0{display:none;}
	.st1{display:inline;}
	.st2{display:inline;clip-path:url(#SVGID_00000032634931525913798310000009442745515088669341_);fill:#231F20;}
</style>
<g>
	<path d="M683.5,154.7c-1.2-1.1-20.5-16.1-24.3-24c-6.7-12.6-5.2-26,4.1-37.9c10.2-13,14.9-26.3,14.5-40.9
		c-0.5-16.9-7.8-30.6-21.6-41C642.5,0.7,625.7-2.3,605,1.8c-14.9,3-26.2,9.5-34.4,20c-13.7,17.5-17.4,51.7-0.6,72.6
		c10.4,13,18.8,23.8,26.5,34c10.5,14,20.6,29.3,19.3,48.6c-1.2,6.8-1.7,14-15.4,20.1c-2.2,0.9-27.1,9.1-34.7,14.5
		c-6.9,4.1-11.5,11.9-12.7,21.3c-1.3,9.9,1.4,19.9,7,25.5c4.5,4.5,25.7,15.6,29.1,30.3c3.5,17.1-0.7,32.1-12.7,44.6
		c-11.4,11.9-26.4,16.8-47.4,15.4c-15-1-25.8-8.2-33.1-22.2c-6.5-12.5-9.4-26.6-9-44.6c0.2-11.4,3.2-21.2,9.1-29.9
		c6.6-9.8,21-30.3,21-30.3c13.6-19.5,14.7-40.1,3.1-61.3c-4.8-8.8-12.5-14.4-21.3-15.4c-8.6-1-17,2.6-23.6,10
		c-5.1,5.6-10.5,11.3-15.2,16.3c-5.5,5.8-12,7.1-20.1,4.1c-6.6-2.5-10.5-7.5-11.4-14.9c-2.3-17.6,1.1-32.9,10.4-46.8
		c10.7-16,20.5-32.4,22.7-56.1c0.6-4-0.7-17.5-3.2-24.1c-8.1-22-27.4-33.5-54.2-32.2c-28.6,1.3-51.1,22.5-53.5,50.2
		c-1.5,17.7,2.2,34.3,11.3,50.7c3.9,6.9,8.2,14.7,10,22.6c4.8,20.8,2.2,40.5-7.9,58.4c-6.5,11.6-9.5,23.6-8.7,35.7
		c0.5,8.5,2.2,15.6,5,21.2c8.6,17.2,37,25.4,44.3,26.3c9.1,1.9,32.1,7,38.1,21.1c4.2,7.4,10.4,34,12.5,56.5
		c1.2,9.8,1.5,19.4,3.2,29.3c2.3,13.4,8.4,25.7,17.7,35.6c10.2,11,27.9,17.1,45.6,17.1c8.5,0,17.1-1.4,24.8-4.4
		c25.6-10,40.2-28.9,44.4-58c1.8-12.6,5.8-20.5,21-24c5-1.1,10.6-1.8,16-2.5c2.8-0.3,5.5-0.7,8.2-1c10.3-1.5,24.5-5.1,29.3-18.8
		c5.5-15.9,1.8-30-10.5-39.9c-1-0.8-5.1-4.5-6.1-5.3c-7.8-6.3-10-13.2-9-24c0.8-5.7,4.9-9.3,9-11.4c3.2-1.7,16.8-8.5,21-10.8
		c7.7-4.2,14.1-8.6,18.1-11.6c6.3-4.7,10.6-14.4,11.2-23.3C700.2,176.4,697.7,165.9,683.5,154.7"/>
	<path d="M0,412.8h298.8V9.3h-83.6v267.9c0,41.8-26.9,67-65.8,67s-65.8-25.2-65.8-67V9.3H0V412.8z"/>
</g>
<g class="st0">
	<defs>
		<rect id="SVGID_1_" width="1280" height="571.9"/>
	</defs>
	<clipPath id="SVGID_00000020376657302924706240000014342640947056726926_" class="st1">
		<use xlink:href="#SVGID_1_"  style="overflow:visible;"/>
	</clipPath>
	<path style="display:inline;clip-path:url(#SVGID_00000020376657302924706240000014342640947056726926_);fill:#231F20;" d="
		M1234.7,542.3h10.4v-51.4h20.8v51.4h10.4v-60.9h-41.5V542.3z M1199.4,489.7c8,0,13.4,6.8,14.5,17.8h-29.1
		C1186.1,496.5,1191.5,489.7,1199.4,489.7 M1200.6,534c-8.8,0-14.8-7.2-15.8-18.5h39.8c0-21.6-9.8-35.3-25.1-35.3
		s-25.1,12.3-25.1,31.6s10.3,31.6,26.3,31.6c9.6,0,18.3-6.1,22.1-15.6l-8.6-4.6C1211.7,529.8,1206.5,534,1200.6,534 M1134.3,542.3
		h29.6v-9.5h-19.3v-42.4h26v-9h-26v-21h-10.4v21h-12.7v9h12.7V542.3z M1103.8,542.3h10.4v-60.9h-10.4V542.3z M1103.8,468.3h10.4
		v-16.4h-10.4V468.3z M1068.5,489.7c8,0,13.4,6.8,14.5,17.8H1054C1055.2,496.5,1060.6,489.7,1068.5,489.7 M1069.7,534
		c-8.8,0-14.8-7.2-15.8-18.5h39.8c0-21.6-9.8-35.3-25.1-35.3c-15.3,0-25.1,12.3-25.1,31.6s10.3,31.6,26.3,31.6
		c9.6,0,18.3-6.1,22.1-15.6l-8.7-4.6C1080.8,529.8,1075.6,534,1069.7,534 M1002.9,542.3h10.4v-51.4h26.1v-9.5h-36.4V542.3z
		 M959,542.3h29.6v-9.5h-19.3v-42.4h26v-9h-26v-21H959v21h-12.7v9H959V542.3z M919.7,543.5c11.6,0,19-6.2,19-15.9
		c0-19.6-28.8-19-28.8-30.6c0-4.4,3.3-7.3,8.6-7.3c6.6,0,12.3,4.8,14.6,12.5l8.7-4.6c-4.3-10.6-13.4-17.3-23.3-17.3
		c-11.5,0-19,6.2-19,15.9c0,18.9,28.8,18.3,28.8,30.6c0,4.4-3.3,7.3-8.6,7.3c-6.3,0-12.1-4.8-14.6-12.5l-8.5,4.6
		C900.9,536.8,910,543.5,919.7,543.5 M828.6,566.1h10l8.5-17.3v-21.7h-9v19.6L828.6,566.1z M783,542.3h10.4v-51.4h20.8v51.4h10.4
		v-60.9H783V542.3z M747.7,489.7c8,0,13.4,6.8,14.5,17.8h-29.1C734.3,496.5,739.7,489.7,747.7,489.7 M748.9,534
		c-8.8,0-14.8-7.2-15.8-18.5h39.8c0-21.6-9.8-35.3-25.1-35.3c-15.3,0-25.1,12.3-25.1,31.6s10.3,31.6,26.3,31.6
		c9.6,0,18.3-6.1,22.1-15.6l-8.7-4.6C759.9,529.8,754.7,534,748.9,534 M682.5,542.3h29.6v-9.5h-19.3v-42.4h26v-9h-26v-21h-10.4v21
		h-12.7v9h12.7V542.3z M652,542.3h10.4v-90.4H652V542.3z M618.4,534c-6.7,0-11-5-11-12.7s4.3-12.6,11-12.6c6.7,0,11,4.8,11,12.6
		S625.1,534,618.4,534 M590.8,481.4v9h37.6v14.4c-3.2-3.2-7.6-5.1-12.8-5.1c-11.3,0-18.6,8.4-18.6,21.6c0,13.5,7.3,22.1,18.6,22.1
		c5.2,0,9.6-1.8,12.8-5.2v4h10.4v-60.9H590.8z M549.5,542.3h29.6v-9.5h-19.3v-42.4h26v-9h-26v-21h-10.4v21h-12.7v9h12.7V542.3z
		 M510.1,543.5c11.6,0,19-6.2,19-15.9c0-19.6-28.8-19-28.8-30.6c0-4.4,3.3-7.3,8.6-7.3c6.6,0,12.3,4.8,14.6,12.5l8.7-4.6
		c-4.3-10.6-13.4-17.3-23.3-17.3c-11.5,0-19,6.2-19,15.9c0,18.9,28.8,18.3,28.8,30.6c0,4.4-3.3,7.3-8.6,7.3
		c-6.3,0-12.1-4.8-14.6-12.5l-8.5,4.6C491.3,536.8,500.5,543.5,510.1,543.5 M455.3,489.7c8,0,13.4,6.8,14.5,17.8h-29.1
		C442,496.5,447.4,489.7,455.3,489.7 M456.5,534c-8.8,0-14.8-7.2-15.8-18.5h39.8c0-21.6-9.8-35.3-25.1-35.3
		c-15.3,0-25.1,12.3-25.1,31.6s10.3,31.6,26.3,31.6c9.6,0,18.3-6.1,22.1-15.6l-8.7-4.6C467.6,529.8,462.4,534,456.5,534 M395,534
		c-9,0-14.9-8.6-14.8-22.1c0.1-13.5,5.9-22.1,14.8-22.1c9,0,14.8,8.6,14.8,22.1C409.8,525.4,404,534,395,534 M409.3,481.4v7.4
		c-3.9-5.4-9.7-8.5-16.6-8.5c-14,0-22.8,12.3-22.8,31.6s8.9,31.6,22.8,31.6c6.9,0,12.7-3.1,16.6-8.5v27.9h-39.4v9h49.8v-90.4H409.3z
		 M301.7,566.1h10l8.5-17.3v-21.7h-9v19.6L301.7,566.1z M256.1,542.3h10.4v-51.4h20.8v51.4h10.4v-60.9h-41.5V542.3z M220.8,489.7
		c8,0,13.4,6.8,14.5,17.8h-29.1C207.5,496.5,212.9,489.7,220.8,489.7 M222,534c-8.8,0-14.8-7.2-15.8-18.5H246
		c0-21.6-9.8-35.3-25.1-35.3s-25.1,12.3-25.1,31.6s10.3,31.6,26.3,31.6c9.6,0,18.3-6.1,22.1-15.6l-8.6-4.6
		C233.1,529.8,227.9,534,222,534 M143.7,542.3h10.4v-51.4h20.8v51.4h10.4v-60.9h-41.5V542.3z M110,534c-6.7,0-11-5-11-12.7
		s4.3-12.6,11-12.6c6.7,0,11,4.8,11,12.6S116.7,534,110,534 M82.5,481.4v9h37.6v14.4c-3.2-3.2-7.6-5.1-12.8-5.1
		c-11.3,0-18.6,8.4-18.6,21.6c0,13.5,7.3,22.1,18.6,22.1c5.2,0,9.6-1.8,12.8-5.2v4h10.4v-60.9H82.5z M64.6,542.3H75v-90.4H64.6
		V542.3z M28.8,534c-9,0-14.8-8.6-14.8-22.1c0-13.5,5.8-22.1,14.8-22.1c8.9,0,14.6,8.6,14.8,22.1C43.7,525.4,37.8,534,28.8,534
		 M31.1,480.3c-6.9,0-12.7,3.1-16.6,8.5v-7.4H4.2v90.4h10.4V535c3.9,5.4,9.7,8.5,16.6,8.5c14,0,22.8-12.3,22.8-31.6
		S45.1,480.3,31.1,480.3"/>
	<path style="display:inline;clip-path:url(#SVGID_00000020376657302924706240000014342640947056726926_);fill:#231F20;" d="
		M686.2,155.4c-1.2-1.1-20.6-16.1-24.4-24.1c-6.7-12.6-5.3-26.1,4.1-38.1c10.2-13,15-26.5,14.6-41.1c-0.5-16.9-7.8-30.8-21.7-41.2
		C645,0.7,628.2-2.3,607.3,1.8c-15,3-26.3,9.6-34.6,20.1c-13.8,17.6-17.4,51.9-0.6,72.9c10.5,13,18.9,23.9,26.6,34.2
		c10.5,14.1,20.7,29.4,19.4,48.8c-1.2,6.8-1.7,14.1-15.5,20.2c-2.2,0.9-27.3,9.2-34.9,14.6c-6.9,4.1-11.6,11.9-12.8,21.4
		c-1.3,10,1.4,20,7.1,25.7c4.5,4.5,25.8,15.6,29.2,30.4c3.6,17.2-0.7,32.2-12.7,44.8c-11.4,11.9-26.5,16.8-47.6,15.5
		c-15-1-25.9-8.3-33.2-22.3c-6.5-12.5-9.4-26.8-9.1-44.8c0.2-11.5,3.2-21.3,9.1-30.1c6.6-9.8,21-30.5,21-30.5
		c13.7-19.6,14.7-40.3,3.1-61.5c-4.8-8.8-12.6-14.4-21.4-15.4c-8.6-1-17,2.6-23.7,10c-5.1,5.7-10.5,11.4-15.3,16.4
		c-5.5,5.8-12.1,7.1-20.2,4.1c-6.6-2.5-10.5-7.5-11.5-15c-2.3-17.7,1.1-33.1,10.5-47c10.8-16.1,20.6-32.5,22.8-56.4
		c0.6-4-0.7-17.6-3.2-24.2c-8.2-22.2-27.5-33.7-54.5-32.4c-28.8,1.3-51.3,22.6-53.7,50.5c-1.5,17.8,2.2,34.5,11.3,50.9
		c3.9,6.9,8.3,14.8,10.1,22.7c4.8,20.9,2.2,40.7-7.9,58.6c-6.6,11.7-9.5,23.7-8.7,35.8c0.5,8.5,2.2,15.7,5,21.3
		c8.6,17.3,37.1,25.5,44.5,26.4c9.2,1.9,32.2,7.1,38.3,21.2c4.2,7.4,10.5,34.2,12.6,56.8c1.2,9.8,1.5,19.5,3.3,29.5
		c2.3,13.4,8.5,25.8,17.8,35.8c10.2,11,28,17.2,45.8,17.2c8.6,0,17.1-1.4,24.9-4.4c25.8-10,40.3-29.1,44.6-58.2
		c1.8-12.6,5.9-20.6,21.1-24.1c5-1.1,10.7-1.8,16.1-2.5c2.8-0.3,5.6-0.7,8.2-1.1c10.3-1.5,24.7-5.1,29.4-18.9
		c5.5-15.9,1.8-30.2-10.5-40.1c-1-0.8-5.1-4.5-6.2-5.3c-7.8-6.4-10-13.3-9.1-24.1c0.8-5.8,4.9-9.4,9-11.5
		c3.3-1.7,16.9-8.5,21.1-10.8c7.7-4.2,14.1-8.6,18.1-11.6c6.3-4.7,10.7-14.4,11.3-23.4C703,177.2,700.5,166.7,686.2,155.4"/>
	<path style="display:inline;clip-path:url(#SVGID_00000020376657302924706240000014342640947056726926_);fill:#231F20;" d="
		M0,414.6h300.1V9.3h-83.9v269c0,42-27,67.3-66.1,67.3c-39.1,0-66.1-25.3-66.1-67.3V9.3H0V414.6z"/>
</g>
<path d="M1132.4,113.7c0-17.9,13.3-31.5,30.9-31.5c17.6,0,30.9,13.5,30.9,31.5v299.7h86.7V122.3c0-71.3-48.4-121.1-117.6-121.1
	c-69.3,0-117.6,49.8-117.6,121.1v187.2c0,16.3-12.1,28.6-28,28.6c-16,0-28-12.3-28-28.6V122.3C989.6,51,941.2,1.2,872,1.2
	c-69.3,0-117.6,49.8-117.6,121.1v291.1h86.7V113.7c0-17.9,13.3-31.5,30.9-31.5c17.6,0,30.9,13.5,30.9,31.5v187.2
	c0,68.5,48.3,118.2,114.8,118.2s114.8-49.7,114.8-118.2V113.7z"/>
</svg>
