<?xml version="1.0" encoding="UTF-8"?>
<svg id="Layer_1" data-name="Layer 1" xmlns="http://www.w3.org/2000/svg" viewBox="0 0 1908.1 179.92">
  <defs>
    <style>
      .cls-1 {
        stroke-width: 0px;
      }
    </style>
  </defs>
  <path class="cls-1" d="M1845.82,135.63h15.57V58.47h31.14v77.16h15.57V44.29h-62.28v91.35ZM1792.92,56.74c11.94,0,20.07,10.21,21.8,26.64h-43.6c1.73-16.44,9.86-26.64,21.8-26.64M1794.65,123.18c-13.15,0-22.14-10.73-23.7-27.68h59.69c0-32.35-14.71-52.94-37.71-52.94s-37.71,18.51-37.71,47.4,15.4,47.4,39.44,47.4c14.36,0,27.51-9.17,33.22-23.35l-12.97-6.92c-3.63,9.69-11.42,16.09-20.24,16.09M1695.17,135.63h44.46v-14.19h-28.89v-63.66h38.93v-13.49h-38.93V12.8h-15.57v31.49h-19.03v13.49h19.03v77.85ZM1649.38,135.63h15.57V44.29h-15.57v91.35ZM1649.38,24.57h15.57V0h-15.57v24.57ZM1596.56,56.74c11.94,0,20.07,10.21,21.8,26.64h-43.6c1.73-16.44,9.86-26.64,21.8-26.64M1598.29,123.18c-13.15,0-22.15-10.73-23.7-27.68h59.69c0-32.35-14.71-52.94-37.71-52.94s-37.71,18.51-37.71,47.4,15.4,47.4,39.45,47.4c14.36,0,27.51-9.17,33.22-23.35l-12.98-6.92c-3.63,9.69-11.42,16.09-20.24,16.09M1498.16,135.63h15.57V58.47h39.1v-14.19h-54.67v91.35ZM1432.28,135.63h44.46v-14.19h-28.89v-63.66h38.93v-13.49h-38.93V12.8h-15.57v31.49h-19.03v13.49h19.03v77.85ZM1373.24,137.36c17.47,0,28.54-9.34,28.54-23.87,0-29.41-43.25-28.55-43.25-45.85,0-6.57,5.02-10.9,12.97-10.9,9.86,0,18.51,7.27,21.97,18.68l12.98-6.92c-6.4-15.92-20.07-25.95-34.95-25.95-17.3,0-28.55,9.34-28.55,23.87,0,28.37,43.25,27.51,43.25,45.85,0,6.57-5.02,10.9-12.97,10.9-9.52,0-18.17-7.27-21.97-18.68l-12.8,6.92c6.58,15.92,20.24,25.95,34.77,25.95M1236.65,171.27h15.05l12.8-25.95v-32.52h-13.49v29.41l-14.36,29.06ZM1168.22,135.63h15.57V58.47h31.14v77.16h15.57V44.29h-62.28v91.35ZM1115.31,56.74c11.94,0,20.07,10.21,21.8,26.64h-43.6c1.73-16.44,9.86-26.64,21.8-26.64M1117.04,123.18c-13.15,0-22.15-10.73-23.7-27.68h59.68c0-32.35-14.71-52.94-37.71-52.94s-37.71,18.51-37.71,47.4,15.4,47.4,39.45,47.4c14.36,0,27.51-9.17,33.22-23.35l-12.98-6.92c-3.63,9.69-11.42,16.09-20.24,16.09M1017.57,135.63h44.46v-14.19h-28.89v-63.66h38.93v-13.49h-38.93V12.8h-15.57v31.49h-19.03v13.49h19.03v77.85ZM971.78,135.63h15.57V0h-15.57v135.63ZM921.33,123.18c-10.03,0-16.44-7.44-16.44-19.03s6.4-18.86,16.44-18.86,16.43,7.27,16.43,18.86-6.4,19.03-16.43,19.03M879.98,44.29v13.49h56.4v21.63c-4.84-4.85-11.42-7.61-19.2-7.61-16.95,0-27.85,12.63-27.85,32.35s10.9,33.22,27.85,33.22c7.78,0,14.36-2.77,19.2-7.78v6.06h15.57V44.29h-71.97ZM818.01,135.63h44.46v-14.19h-28.89v-63.66h38.93v-13.49h-38.93V12.8h-15.57v31.49h-19.03v13.49h19.03v77.85ZM758.97,137.36c17.47,0,28.54-9.34,28.54-23.87,0-29.41-43.25-28.55-43.25-45.85,0-6.57,5.02-10.9,12.97-10.9,9.86,0,18.51,7.27,21.97,18.68l12.98-6.92c-6.4-15.92-20.07-25.95-34.95-25.95-17.3,0-28.55,9.34-28.55,23.87,0,28.37,43.25,27.51,43.25,45.85,0,6.57-5.02,10.9-12.97,10.9-9.52,0-18.17-7.27-21.97-18.68l-12.8,6.92c6.58,15.92,20.24,25.95,34.77,25.95M676.77,56.74c11.94,0,20.07,10.21,21.8,26.64h-43.6c1.73-16.44,9.86-26.64,21.8-26.64M678.51,123.18c-13.15,0-22.15-10.73-23.7-27.68h59.69c0-32.35-14.71-52.94-37.71-52.94s-37.71,18.51-37.71,47.4,15.4,47.4,39.45,47.4c14.36,0,27.51-9.17,33.22-23.35l-12.98-6.92c-3.63,9.69-11.42,16.09-20.24,16.09M586.24,123.18c-13.49,0-22.32-12.97-22.14-33.22.17-20.24,8.82-33.22,22.14-33.22s22.15,12.97,22.15,33.22-8.65,33.22-22.15,33.22M607.7,44.29v11.07c-5.88-8.13-14.53-12.8-24.91-12.8-20.93,0-34.26,18.51-34.26,47.4s13.32,47.4,34.26,47.4c10.38,0,19.03-4.67,24.91-12.8v41.87h-59.17v13.49h74.74V44.29h-15.57ZM446.37,171.27h15.05l12.8-25.95v-32.52h-13.49v29.41l-14.36,29.06ZM377.93,135.63h15.57V58.47h31.14v77.16h15.57V44.29h-62.28v91.35ZM325.03,56.74c11.94,0,20.07,10.21,21.8,26.64h-43.6c1.73-16.44,9.86-26.64,21.8-26.64M326.76,123.18c-13.15,0-22.15-10.73-23.7-27.68h59.68c0-32.35-14.71-52.94-37.71-52.94s-37.71,18.51-37.71,47.4,15.4,47.4,39.45,47.4c14.36,0,27.51-9.17,33.22-23.35l-12.97-6.92c-3.63,9.69-11.42,16.09-20.24,16.09M209.33,135.63h15.57V58.47h31.14v77.16h15.57V44.29h-62.28v91.35ZM158.83,123.18c-10.03,0-16.43-7.44-16.43-19.03s6.4-18.86,16.43-18.86,16.44,7.27,16.44,18.86-6.4,19.03-16.44,19.03M117.48,44.29v13.49h56.4v21.63c-4.85-4.85-11.42-7.61-19.2-7.61-16.96,0-27.85,12.63-27.85,32.35s10.9,33.22,27.85,33.22c7.78,0,14.36-2.77,19.2-7.78v6.06h15.57V44.29h-71.97ZM90.72,135.63h15.57V0h-15.57v135.63ZM37.02,123.18c-13.5,0-22.15-12.97-22.15-33.22s8.65-33.22,22.15-33.22,21.97,12.97,22.14,33.22c.17,20.24-8.65,33.22-22.14,33.22M40.48,42.56c-10.38,0-19.03,4.67-24.91,12.8v-11.07H0v135.63h15.57v-55.36c5.88,8.13,14.53,12.8,24.91,12.8,20.93,0,34.26-18.51,34.26-47.4s-13.32-47.4-34.26-47.4"/>
</svg>